<svg width="799" height="279" viewBox="0 0 799 279" fill="none" xmlns="http://www.w3.org/2000/svg">
<rect width="799" height="278.906" rx="28" fill="#85AC51" fill-opacity="0.54"/>
<mask id="mask0_345_5531" style="mask-type:alpha" maskUnits="userSpaceOnUse" x="0" y="0" width="799" height="279">
<rect width="799" height="278.906" rx="28" fill="white"/>
</mask>
<g mask="url(#mask0_345_5531)">
<path opacity="0.286551" d="M471.012 229.76C528.232 239.533 504.229 208.192 539.836 206.415C575.909 204.638 560.705 150.305 624.473 181.498C662.463 193.495 640.755 116.713 706.404 139.356C724.888 145.732 738.168 168.678 759.211 174.47C770.165 177.485 792.53 158.344 799 167.098C824.244 201.255 814.055 283.599 814.055 283.599L418.319 282.592C418.319 282.592 437.115 223.985 471.012 229.76Z" fill="#1F7A34"/>
<path opacity="0.286551" d="M628.016 285.049C678.454 294.823 661.151 229.079 692.538 227.302C717.26 225.921 720.328 188.192 746.307 194.129C762.437 197.814 762.437 211.33 775.342 195.357C788.246 154.811 802.226 174.47 802.226 174.47L799 287.507C799 287.507 598.137 279.274 628.016 285.049Z" fill="#1F7A34"/>
<path d="M769.132 195.894V195.894C769.132 195.894 769.132 195.847 769.132 195.894C769.09 195.799 769.047 195.751 769.004 195.703C766.264 191.682 767.12 185.795 767.377 184.503C767.377 184.407 767.42 184.359 767.42 184.264V184.216V184.216C767.505 183.641 767.548 183.067 767.548 182.493C767.548 177.371 763.823 173.159 759.199 173.159C754.618 173.159 750.85 177.323 750.85 182.493C750.85 183.067 750.893 183.641 751.022 184.216V184.216V184.264C751.022 184.359 751.064 184.407 751.064 184.503C751.321 185.843 752.135 191.73 749.437 195.703C749.395 195.751 749.395 195.799 749.352 195.847C749.352 195.847 749.352 195.847 749.352 195.894V195.894C748.11 198 747.382 200.537 747.382 203.265C747.382 210.589 752.691 216.524 759.242 216.524C765.793 216.524 771.102 210.589 771.102 203.265C771.145 200.537 770.417 198 769.132 195.894Z" fill="#1F7A34"/>
<path fill-rule="evenodd" clip-rule="evenodd" d="M759.243 185.803V232.492Z" fill="#1F7A34"/>
<path d="M759.243 185.803V232.492" stroke="white" stroke-width="0.754941"/>
<path fill-rule="evenodd" clip-rule="evenodd" d="M752.591 195.716L759.233 206.558Z" fill="#1F7A34"/>
<path d="M752.591 195.716L759.233 206.558" stroke="white" stroke-width="0.754941"/>
<path fill-rule="evenodd" clip-rule="evenodd" d="M764.037 187.777L759.292 194.282Z" fill="#1F7A34"/>
<path d="M764.037 187.777L759.292 194.282" stroke="white" stroke-width="0.754941"/>
<path d="M733.645 227.922V227.922C733.645 227.922 733.645 227.874 733.645 227.922C733.602 227.826 733.56 227.778 733.517 227.73C730.777 223.71 731.633 217.823 731.89 216.53C731.89 216.434 731.933 216.387 731.933 216.291V216.243V216.243C732.018 215.669 732.061 215.094 732.061 214.52C732.061 209.399 728.336 205.187 723.712 205.187C719.131 205.187 715.363 209.351 715.363 214.52C715.363 215.094 715.406 215.669 715.534 216.243V216.243V216.291C715.534 216.387 715.577 216.434 715.577 216.53C715.834 217.87 716.648 223.758 713.95 227.73C713.907 227.778 713.907 227.826 713.865 227.874C713.865 227.874 713.865 227.874 713.865 227.922V227.922C712.623 230.028 711.895 232.565 711.895 235.293C711.895 242.616 717.204 248.551 723.755 248.551C730.306 248.551 735.615 242.616 735.615 235.293C735.657 232.565 734.93 230.028 733.645 227.922Z" fill="#1F7A34"/>
<path fill-rule="evenodd" clip-rule="evenodd" d="M723.756 217.83L723.746 279.521Z" fill="#1F7A34"/>
<path d="M723.756 217.83L723.746 279.521" stroke="white" stroke-width="0.754941"/>
<path fill-rule="evenodd" clip-rule="evenodd" d="M717.104 227.744L723.746 238.585Z" fill="#1F7A34"/>
<path d="M717.104 227.744L723.746 238.585" stroke="white" stroke-width="0.754941"/>
<path fill-rule="evenodd" clip-rule="evenodd" d="M728.549 219.805L723.805 226.309Z" fill="#1F7A34"/>
<path d="M728.549 219.805L723.805 226.309" stroke="white" stroke-width="0.754941"/>
<path opacity="0.654971" fill-rule="evenodd" clip-rule="evenodd" d="M469.272 52.5741C462.861 54.425 457.364 49.4767 457.364 49.4767C457.364 49.4767 450.949 40.5878 461.109 37.5641C463.81 36.7599 464.482 35.2701 465.113 33.8695C465.66 32.6535 466.178 31.5048 467.968 30.9306C471.066 29.9366 472.573 31.4204 473.785 32.6126C475.089 33.8961 476.049 34.8415 478.281 31.9919C483.766 24.991 490.678 37.5641 490.678 37.5641C490.678 37.5641 502.761 30.3846 505.934 41.3169C509.108 52.2492 498.124 54.3164 492.526 52.5741C491.218 52.1674 489.883 53.1901 488.262 54.4309C486.304 55.9299 483.931 57.7471 480.69 57.7471C477.474 57.7471 475.3 55.9575 473.487 54.4653C471.961 53.2094 470.692 52.1643 469.272 52.5741ZM713.648 71.991C703.764 74.8077 695.29 67.2776 695.29 67.2776C695.29 67.2776 685.401 53.751 701.063 49.1496C705.228 47.926 706.263 45.6588 707.236 43.5274C708.081 41.677 708.878 39.929 711.638 39.0553C716.414 37.5426 718.738 39.8007 720.605 41.6148C722.616 43.568 724.096 45.0066 727.538 40.6703C735.993 30.0167 746.65 49.1496 746.65 49.1496C746.65 49.1496 765.277 38.2244 770.17 54.8605C775.062 71.4967 758.129 74.6424 749.498 71.991C747.483 71.3721 745.423 72.9284 742.925 74.8166C739.907 77.0976 736.248 79.863 731.252 79.863C726.293 79.863 722.941 77.1396 720.146 74.8689C717.794 72.9578 715.837 71.3674 713.648 71.991Z" fill="#1F7A34"/>
</g>
</svg>
