<svg width="57" height="56" viewBox="0 0 57 56" fill="none" xmlns="http://www.w3.org/2000/svg">
<path d="M25.536 11.9202C25.5442 11.9064 25.5519 11.8923 25.5592 11.8779C26.7776 9.48536 30.212 9.48536 31.4303 11.8779C31.4376 11.8923 31.4454 11.9064 31.4536 11.9202L48.7588 41.0907C49.8867 43.3105 48.2685 45.9168 45.8119 45.9168L11.1777 45.9168C8.73185 45.9168 7.12743 43.2889 8.23167 41.0892L25.536 11.9202Z" fill="#FF2600" stroke="#FF2600" stroke-width="1.5" stroke-linecap="round" stroke-linejoin="round"/>
<path d="M28.5 23.1469V31.6869" stroke="white" stroke-width="1.5" stroke-linecap="round" stroke-linejoin="round"/>
<path d="M28.5 39.8533C29.4838 39.8533 30.2812 39.0698 30.2812 38.1033C30.2812 37.1368 29.4838 36.3533 28.5 36.3533C27.5162 36.3533 26.7188 37.1368 26.7188 38.1033C26.7188 39.0698 27.5162 39.8533 28.5 39.8533Z" fill="white"/>
</svg>
