<svg width="17" height="29" viewBox="0 0 17 29" fill="none" xmlns="http://www.w3.org/2000/svg">
<path d="M15.1849 18.3445C14.9532 17.9557 14.4123 17.8081 13.9766 18.0147C13.5409 18.2213 13.3754 18.704 13.607 19.0927C14.0792 19.8855 14.3288 20.783 14.3288 21.6879C14.3288 23.1935 13.6639 24.6022 12.4565 25.6543C11.2496 26.706 9.65374 27.2647 7.96495 27.2301C4.61779 27.1595 1.89823 24.6699 1.9027 21.6803C1.90583 19.571 3.22325 17.6734 5.34064 16.7279C5.64323 16.5929 5.83427 16.3169 5.83427 16.015V4.04486C5.83427 3.14924 6.6509 2.42059 7.65464 2.42059H8.57669C9.58043 2.42059 10.3971 3.14924 10.3971 4.04486V15.5181C10.3971 15.9584 10.7972 16.3153 11.2905 16.3153C11.7839 16.3153 12.184 15.9584 12.184 15.5181V14.5632H14.3343C14.8277 14.5632 15.2278 14.2063 15.2278 13.766C15.2278 13.3257 14.8277 12.9688 14.3343 12.9688H12.184V11.7277H13.0292C13.5226 11.7277 13.9227 11.3709 13.9227 10.9305C13.9227 10.4902 13.5226 10.1333 13.0292 10.1333H12.184V8.89225H14.3343C14.8277 8.89225 15.2278 8.53536 15.2278 8.09502C15.2278 7.65467 14.8277 7.29778 14.3343 7.29778H12.184V6.05681H13.0292C13.5226 6.05681 13.9227 5.69992 13.9227 5.25958C13.9227 4.81923 13.5226 4.46234 13.0292 4.46234H12.184V4.04486C12.184 2.27009 10.5659 0.826172 8.57675 0.826172H7.6547C5.66566 0.826172 4.04742 2.27009 4.04742 4.04486V15.5418C1.61219 16.8223 0.119591 19.1301 0.11573 21.6782C0.109907 25.5276 3.61214 28.7333 7.92266 28.8241C7.988 28.8255 8.05284 28.8262 8.11799 28.8262C10.2199 28.8261 12.1976 28.1087 13.705 26.795C15.2596 25.4403 16.1157 23.6265 16.1157 21.6879C16.1157 20.523 15.7938 19.3669 15.1849 18.3445Z" fill="#242424" stroke="#242424" stroke-width="0.1"/>
</svg>
