<svg width="18" height="18" viewBox="0 0 18 18" fill="none" xmlns="http://www.w3.org/2000/svg">
<path d="M9 16.25C12.1347 16.25 14.75 13.9067 14.75 10.9286C14.75 9.14638 13.8761 7.35835 12.8769 5.88417C11.8694 4.39789 10.6878 3.16312 9.97805 2.47498C9.42905 1.94273 8.57095 1.94273 8.02195 2.47498C7.31216 3.16312 6.13059 4.39789 5.12314 5.88417C4.12391 7.35835 3.25 9.14638 3.25 10.9286C3.25 13.9067 5.8653 16.25 9 16.25Z" stroke="#222222"/>
<path d="M9 13.5C8.60603 13.5 8.21593 13.4224 7.85195 13.2716C7.48797 13.1209 7.15726 12.8999 6.87868 12.6213C6.6001 12.3427 6.37913 12.012 6.22836 11.6481C6.0776 11.2841 6 10.894 6 10.5" stroke="#222222" stroke-linecap="round"/>
</svg>
